<svg xmlns="http://www.w3.org/2000/svg" xmlns:xlink="http://www.w3.org/1999/xlink" width="852" height="817" version="1.1" viewBox="0 0 852 817"><title>hexagonal@1.5x</title><desc>Created with Sketch.</desc><g id="Grids" fill="none" fill-rule="evenodd" stroke="none" stroke-width="1"><g id="hexagonal" stroke="#342892" transform="translate(1.000000, 1.000000)"><polygon id="Stroke-1" points="425.155 815.318 562.191 736.194 562.191 577.954 425.155 498.839 288.118 577.954 288.118 736.194"/><polygon id="Stroke-3" points="569.043 566.085 706.08 486.97 706.08 328.73 569.043 249.607 432.005 328.73 432.005 486.97"/><polygon id="Stroke-4" points="281.266 566.085 418.303 486.97 418.303 328.73 281.266 249.607 144.23 328.73 144.23 486.97"/><polygon id="Stroke-5" points="569.043 566.085 706.08 486.97 706.08 328.73 569.043 249.607 432.005 328.73 432.005 486.97"/><polygon id="Stroke-6" points="712.938 316.862 849.976 237.745 849.976 79.507 712.938 .383 575.892 79.507 575.892 237.745"/><polygon id="Stroke-8" points="425.155 316.862 562.191 237.745 562.191 79.507 425.155 .383 288.118 79.507 288.118 237.745"/><polygon id="Stroke-11" points="281.266 566.085 418.303 486.97 418.303 328.73 281.266 249.607 144.23 328.73 144.23 486.97"/><polygon id="Stroke-12" points="425.155 316.862 562.191 237.745 562.191 79.507 425.155 .383 288.118 79.507 288.118 237.745"/><polygon id="Stroke-14" points="137.371 316.862 274.416 237.745 274.416 79.507 137.371 .383 .332 79.507 .332 237.745"/><polygon id="Stroke-17" points="425.155 573.317 525.268 515.518 525.268 399.916 425.155 342.116 325.041 399.916 325.041 515.518"/><polygon id="Stroke-18" points="540.285 373.908 640.399 316.108 640.399 200.507 540.285 142.706 440.169 200.507 440.169 316.108"/><polygon id="Stroke-19" points="310.024 373.908 410.139 316.108 410.139 200.507 310.024 142.706 209.91 200.507 209.91 316.108"/></g></g></svg>